<mxfile host="Electron" modified="2024-01-29T14:19:34.875Z" agent="Mozilla/5.0 (Windows NT 10.0; Win64; x64) AppleWebKit/537.36 (KHTML, like Gecko) draw.io/23.0.2 Chrome/120.0.6099.109 Electron/28.1.0 Safari/537.36" etag="vHclu9owUXCH_n6dy-R3" version="23.0.2" type="device">
  <diagram id="C5RBs43oDa-KdzZeNtuy" name="Page-1">
    <mxGraphModel dx="2093" dy="1046" grid="1" gridSize="10" guides="1" tooltips="1" connect="1" arrows="1" fold="1" page="1" pageScale="1" pageWidth="1169" pageHeight="1654" math="0" shadow="0">
      <root>
        <mxCell id="WIyWlLk6GJQsqaUBKTNV-0" />
        <mxCell id="WIyWlLk6GJQsqaUBKTNV-1" parent="WIyWlLk6GJQsqaUBKTNV-0" />
        <mxCell id="9_fdUrSxjmN1W93VfHhp-2" value="" style="rounded=0;whiteSpace=wrap;html=1;fillColor=#dae8fc;strokeColor=#6c8ebf;fontFamily=Helvetica;" parent="WIyWlLk6GJQsqaUBKTNV-1" vertex="1">
          <mxGeometry x="30" y="28" width="620" height="260" as="geometry" />
        </mxCell>
        <mxCell id="9_fdUrSxjmN1W93VfHhp-0" value="&lt;p style=&quot;margin:0px;margin-top:4px;text-align:center;&quot;&gt;&lt;i&gt;&amp;lt;&amp;lt;enumeration&amp;gt;&amp;gt;&lt;/i&gt;&lt;br&gt;&lt;b&gt;Unit&lt;/b&gt;&lt;/p&gt;&lt;hr size=&quot;1&quot;&gt;&lt;p style=&quot;margin:0px;margin-left:4px;&quot;&gt;kg&lt;/p&gt;&lt;p style=&quot;margin:0px;margin-left:4px;&quot;&gt;m3&lt;/p&gt;&lt;p style=&quot;margin:0px;margin-left:4px;&quot;&gt;...&lt;/p&gt;" style="verticalAlign=top;align=left;overflow=fill;fontSize=12;fontFamily=Helvetica;html=1;sketch=0;" parent="WIyWlLk6GJQsqaUBKTNV-1" vertex="1">
          <mxGeometry x="60" y="127.5" width="100" height="92.5" as="geometry" />
        </mxCell>
        <mxCell id="9_fdUrSxjmN1W93VfHhp-4" value="Common elements used across all eCH Agricultural Standards" style="text;html=1;strokeColor=none;fillColor=none;align=center;verticalAlign=middle;whiteSpace=wrap;rounded=0;strokeWidth=2;fontFamily=Helvetica;" parent="WIyWlLk6GJQsqaUBKTNV-1" vertex="1">
          <mxGeometry x="440" y="38" width="180" height="30" as="geometry" />
        </mxCell>
        <mxCell id="9_fdUrSxjmN1W93VfHhp-12" value="&lt;p style=&quot;margin:0px;margin-top:4px;text-align:center;&quot;&gt;&lt;b&gt;Identifier&lt;/b&gt;&lt;/p&gt;&lt;hr size=&quot;1&quot;&gt;&lt;p style=&quot;margin:0px;margin-left:4px;&quot;&gt;id&lt;/p&gt;&lt;p style=&quot;margin:0px;margin-left:4px;&quot;&gt;sourceSystemId&lt;/p&gt;" style="verticalAlign=top;align=left;overflow=fill;fontSize=12;fontFamily=Helvetica;html=1;sketch=0;" parent="WIyWlLk6GJQsqaUBKTNV-1" vertex="1">
          <mxGeometry x="480" y="78" width="140" height="80" as="geometry" />
        </mxCell>
        <mxCell id="9_fdUrSxjmN1W93VfHhp-13" value="&lt;p style=&quot;margin:0px;margin-top:4px;text-align:center;&quot;&gt;&lt;b&gt;Descriptor&lt;/b&gt;&lt;/p&gt;&lt;hr size=&quot;1&quot;&gt;&lt;p style=&quot;margin:0px;margin-left:4px;&quot;&gt;designationDeu&lt;/p&gt;&lt;p style=&quot;margin:0px;margin-left:4px;&quot;&gt;designationFra&lt;/p&gt;&lt;p style=&quot;margin:0px;margin-left:4px;&quot;&gt;...&lt;/p&gt;&lt;p style=&quot;margin:0px;margin-left:4px;&quot;&gt;explanation&lt;/p&gt;" style="verticalAlign=top;align=left;overflow=fill;fontSize=12;fontFamily=Helvetica;html=1;sketch=0;" parent="WIyWlLk6GJQsqaUBKTNV-1" vertex="1">
          <mxGeometry x="480" y="178" width="140" height="102" as="geometry" />
        </mxCell>
        <mxCell id="A5fvS7BDDAw0l9XVEY4Y-0" value="eCH-0108LegalUnitMasterData" style="swimlane;fontStyle=1;align=center;verticalAlign=top;childLayout=stackLayout;horizontal=1;startSize=26;horizontalStack=0;resizeParent=1;resizeParentMax=0;resizeLast=0;collapsible=1;marginBottom=0;strokeWidth=2;sketch=0;fontFamily=Helvetica;" parent="WIyWlLk6GJQsqaUBKTNV-1" vertex="1">
          <mxGeometry x="120" y="491.5" width="210" height="84" as="geometry" />
        </mxCell>
        <mxCell id="A5fvS7BDDAw0l9XVEY4Y-1" value="  " style="text;strokeColor=none;fillColor=none;align=left;verticalAlign=top;spacingLeft=4;spacingRight=4;overflow=hidden;rotatable=0;points=[[0,0.5],[1,0.5]];portConstraint=eastwest;fontFamily=Helvetica;" parent="A5fvS7BDDAw0l9XVEY4Y-0" vertex="1">
          <mxGeometry y="26" width="210" height="24" as="geometry" />
        </mxCell>
        <mxCell id="A5fvS7BDDAw0l9XVEY4Y-2" value="" style="line;strokeWidth=1;fillColor=none;align=left;verticalAlign=middle;spacingTop=-1;spacingLeft=3;spacingRight=3;rotatable=0;labelPosition=right;points=[];portConstraint=eastwest;fontFamily=Helvetica;" parent="A5fvS7BDDAw0l9XVEY4Y-0" vertex="1">
          <mxGeometry y="50" width="210" height="8" as="geometry" />
        </mxCell>
        <mxCell id="A5fvS7BDDAw0l9XVEY4Y-3" value="  " style="text;strokeColor=none;fillColor=none;align=left;verticalAlign=top;spacingLeft=4;spacingRight=4;overflow=hidden;rotatable=0;points=[[0,0.5],[1,0.5]];portConstraint=eastwest;fontFamily=Helvetica;sketch=0;" parent="A5fvS7BDDAw0l9XVEY4Y-0" vertex="1">
          <mxGeometry y="58" width="210" height="26" as="geometry" />
        </mxCell>
        <mxCell id="A5fvS7BDDAw0l9XVEY4Y-30" value="" style="curved=1;endArrow=classic;html=1;sketch=0;fontFamily=Helvetica;exitX=-0.017;exitY=-0.169;exitDx=0;exitDy=0;exitPerimeter=0;entryX=0.278;entryY=0.985;entryDx=0;entryDy=0;entryPerimeter=0;" parent="A5fvS7BDDAw0l9XVEY4Y-0" source="A5fvS7BDDAw0l9XVEY4Y-3" target="A5fvS7BDDAw0l9XVEY4Y-3" edge="1">
          <mxGeometry width="50" height="50" relative="1" as="geometry">
            <mxPoint x="420.00400000000013" y="143.0559999999998" as="sourcePoint" />
            <mxPoint x="194.99000000000004" y="149.71399999999994" as="targetPoint" />
            <Array as="points">
              <mxPoint x="-30" y="86" />
              <mxPoint x="-20" y="140" />
              <mxPoint x="44" y="120" />
            </Array>
          </mxGeometry>
        </mxCell>
        <mxCell id="A5fvS7BDDAw0l9XVEY4Y-4" value="AgriculturalAdditionToLegalUnit" style="swimlane;fontStyle=1;align=center;verticalAlign=top;childLayout=stackLayout;horizontal=1;startSize=26;horizontalStack=0;resizeParent=1;resizeParentMax=0;resizeLast=0;collapsible=1;marginBottom=0;strokeWidth=2;sketch=0;fontFamily=Helvetica;" parent="WIyWlLk6GJQsqaUBKTNV-1" vertex="1">
          <mxGeometry x="458" y="460" width="253" height="68" as="geometry" />
        </mxCell>
        <mxCell id="A5fvS7BDDAw0l9XVEY4Y-7" value="parentLegalUnit: uid" style="text;strokeColor=none;fillColor=none;align=left;verticalAlign=top;spacingLeft=4;spacingRight=4;overflow=hidden;rotatable=0;points=[[0,0.5],[1,0.5]];portConstraint=eastwest;sketch=0;fontFamily=Helvetica;" parent="A5fvS7BDDAw0l9XVEY4Y-4" vertex="1">
          <mxGeometry y="26" width="253" height="24" as="geometry" />
        </mxCell>
        <mxCell id="A5fvS7BDDAw0l9XVEY4Y-6" value="" style="line;strokeWidth=1;fillColor=none;align=left;verticalAlign=middle;spacingTop=-1;spacingLeft=3;spacingRight=3;rotatable=0;labelPosition=right;points=[];portConstraint=eastwest;fontFamily=Helvetica;" parent="A5fvS7BDDAw0l9XVEY4Y-4" vertex="1">
          <mxGeometry y="50" width="253" height="18" as="geometry" />
        </mxCell>
        <mxCell id="A5fvS7BDDAw0l9XVEY4Y-5" value="main&#xa;LegalUnit" style="text;strokeColor=none;fillColor=none;align=left;verticalAlign=top;spacingLeft=4;spacingRight=4;overflow=hidden;rotatable=0;points=[[0,0.5],[1,0.5]];portConstraint=eastwest;fontFamily=Helvetica;" parent="WIyWlLk6GJQsqaUBKTNV-1" vertex="1">
          <mxGeometry x="40" y="542" width="70" height="30" as="geometry" />
        </mxCell>
        <mxCell id="A5fvS7BDDAw0l9XVEY4Y-33" value="&lt;p style=&quot;margin:0px;margin-top:4px;text-align:center;&quot;&gt;&lt;b&gt;EnumeratedItem&lt;/b&gt;&lt;/p&gt;&lt;hr size=&quot;1&quot;&gt;&lt;p style=&quot;margin:0px;margin-left:4px;&quot;&gt;code: string&lt;/p&gt;" style="verticalAlign=top;align=left;overflow=fill;fontSize=12;fontFamily=Helvetica;html=1;sketch=0;" parent="WIyWlLk6GJQsqaUBKTNV-1" vertex="1">
          <mxGeometry x="320" y="178" width="113.5" height="72" as="geometry" />
        </mxCell>
        <mxCell id="A5fvS7BDDAw0l9XVEY4Y-39" value="PersonFunction" style="swimlane;fontStyle=1;align=center;verticalAlign=top;childLayout=stackLayout;horizontal=1;startSize=26;horizontalStack=0;resizeParent=1;resizeParentMax=0;resizeLast=0;collapsible=1;marginBottom=0;strokeWidth=2;sketch=0;fontFamily=Helvetica;" parent="WIyWlLk6GJQsqaUBKTNV-1" vertex="1">
          <mxGeometry x="810" y="328" width="160" height="80" as="geometry" />
        </mxCell>
        <mxCell id="A5fvS7BDDAw0l9XVEY4Y-40" value="+ item: EnumeratedItem" style="text;strokeColor=none;fillColor=none;align=left;verticalAlign=top;spacingLeft=4;spacingRight=4;overflow=hidden;rotatable=0;points=[[0,0.5],[1,0.5]];portConstraint=eastwest;fontFamily=Helvetica;sketch=0;" parent="A5fvS7BDDAw0l9XVEY4Y-39" vertex="1">
          <mxGeometry y="26" width="160" height="20" as="geometry" />
        </mxCell>
        <mxCell id="A5fvS7BDDAw0l9XVEY4Y-41" value="" style="line;strokeWidth=1;fillColor=none;align=left;verticalAlign=middle;spacingTop=-1;spacingLeft=3;spacingRight=3;rotatable=0;labelPosition=right;points=[];portConstraint=eastwest;fontFamily=Helvetica;" parent="A5fvS7BDDAw0l9XVEY4Y-39" vertex="1">
          <mxGeometry y="46" width="160" height="8" as="geometry" />
        </mxCell>
        <mxCell id="A5fvS7BDDAw0l9XVEY4Y-42" value="  " style="text;strokeColor=none;fillColor=none;align=left;verticalAlign=top;spacingLeft=4;spacingRight=4;overflow=hidden;rotatable=0;points=[[0,0.5],[1,0.5]];portConstraint=eastwest;fontFamily=Helvetica;sketch=0;" parent="A5fvS7BDDAw0l9XVEY4Y-39" vertex="1">
          <mxGeometry y="54" width="160" height="26" as="geometry" />
        </mxCell>
        <mxCell id="A5fvS7BDDAw0l9XVEY4Y-43" value="PersonWithFunction" style="swimlane;fontStyle=1;align=center;verticalAlign=top;childLayout=stackLayout;horizontal=1;startSize=26;horizontalStack=0;resizeParent=1;resizeParentMax=0;resizeLast=0;collapsible=1;marginBottom=0;strokeWidth=2;sketch=0;fontFamily=Helvetica;" parent="WIyWlLk6GJQsqaUBKTNV-1" vertex="1">
          <mxGeometry x="540" y="308" width="190" height="84" as="geometry" />
        </mxCell>
        <mxCell id="A5fvS7BDDAw0l9XVEY4Y-44" value="personIdentifier: PersonIdentifier" style="text;strokeColor=none;fillColor=none;align=left;verticalAlign=top;spacingLeft=4;spacingRight=4;overflow=hidden;rotatable=0;points=[[0,0.5],[1,0.5]];portConstraint=eastwest;fontFamily=Helvetica;" parent="A5fvS7BDDAw0l9XVEY4Y-43" vertex="1">
          <mxGeometry y="26" width="190" height="24" as="geometry" />
        </mxCell>
        <mxCell id="A5fvS7BDDAw0l9XVEY4Y-45" value="" style="line;strokeWidth=1;fillColor=none;align=left;verticalAlign=middle;spacingTop=-1;spacingLeft=3;spacingRight=3;rotatable=0;labelPosition=right;points=[];portConstraint=eastwest;fontFamily=Helvetica;" parent="A5fvS7BDDAw0l9XVEY4Y-43" vertex="1">
          <mxGeometry y="50" width="190" height="8" as="geometry" />
        </mxCell>
        <mxCell id="A5fvS7BDDAw0l9XVEY4Y-46" value="  " style="text;strokeColor=none;fillColor=none;align=left;verticalAlign=top;spacingLeft=4;spacingRight=4;overflow=hidden;rotatable=0;points=[[0,0.5],[1,0.5]];portConstraint=eastwest;fontFamily=Helvetica;sketch=0;" parent="A5fvS7BDDAw0l9XVEY4Y-43" vertex="1">
          <mxGeometry y="58" width="190" height="26" as="geometry" />
        </mxCell>
        <mxCell id="A5fvS7BDDAw0l9XVEY4Y-48" value="" style="endArrow=classic;html=1;sketch=0;fontFamily=Helvetica;curved=1;exitX=1.008;exitY=0.955;exitDx=0;exitDy=0;entryX=0.007;entryY=0.892;entryDx=0;entryDy=0;entryPerimeter=0;exitPerimeter=0;" parent="WIyWlLk6GJQsqaUBKTNV-1" source="A5fvS7BDDAw0l9XVEY4Y-44" target="A5fvS7BDDAw0l9XVEY4Y-40" edge="1">
          <mxGeometry width="50" height="50" relative="1" as="geometry">
            <mxPoint x="652.939875900435" y="515" as="sourcePoint" />
            <mxPoint x="510" y="358" as="targetPoint" />
          </mxGeometry>
        </mxCell>
        <mxCell id="A5fvS7BDDAw0l9XVEY4Y-51" value="&lt;p style=&quot;margin:0px;margin-top:4px;text-align:center;&quot;&gt;&lt;i&gt;&amp;lt;&amp;lt;enumeration&amp;gt;&amp;gt;&lt;/i&gt;&lt;br&gt;&lt;b&gt;AgriculturalZone&lt;/b&gt;&lt;/p&gt;&lt;hr size=&quot;1&quot;&gt;&lt;p style=&quot;margin:0px;margin-left:4px;&quot;&gt;+ item: EnumeratedItem&lt;br&gt;&lt;/p&gt;&lt;hr size=&quot;1&quot;&gt;&lt;p style=&quot;margin:0px;margin-left:4px;&quot;&gt;&lt;br&gt;&lt;/p&gt;" style="verticalAlign=top;align=left;overflow=fill;fontSize=12;fontFamily=Helvetica;html=1;sketch=0;strokeWidth=2;" parent="WIyWlLk6GJQsqaUBKTNV-1" vertex="1">
          <mxGeometry x="540" y="968" width="190" height="100" as="geometry" />
        </mxCell>
        <mxCell id="A5fvS7BDDAw0l9XVEY4Y-52" value="&lt;p style=&quot;margin:0px;margin-top:4px;text-align:center;&quot;&gt;&lt;i&gt;&amp;lt;&amp;lt;enumeration&amp;gt;&amp;gt;&lt;/i&gt;&lt;br&gt;&lt;b&gt;FarmType&lt;/b&gt;&lt;/p&gt;&lt;hr size=&quot;1&quot;&gt;&lt;p style=&quot;margin:0px;margin-left:4px;&quot;&gt;+ item: EnumeratedItem&lt;br&gt;&lt;/p&gt;&lt;hr size=&quot;1&quot;&gt;&lt;p style=&quot;margin:0px;margin-left:4px;&quot;&gt;&lt;br&gt;&lt;/p&gt;" style="verticalAlign=top;align=left;overflow=fill;fontSize=12;fontFamily=Helvetica;html=1;sketch=0;strokeWidth=2;" parent="WIyWlLk6GJQsqaUBKTNV-1" vertex="1">
          <mxGeometry x="293.5" y="886" width="190" height="100" as="geometry" />
        </mxCell>
        <mxCell id="A5fvS7BDDAw0l9XVEY4Y-53" value="&lt;p style=&quot;margin:0px;margin-top:4px;text-align:center;&quot;&gt;&lt;i&gt;&amp;lt;&amp;lt;enumeration&amp;gt;&amp;gt;&lt;/i&gt;&lt;br&gt;&lt;b&gt;eCH-0108:LegalForm&lt;/b&gt;&lt;/p&gt;&lt;hr size=&quot;1&quot;&gt;&lt;p style=&quot;margin:0px;margin-left:4px;&quot;&gt;&lt;/p&gt;&lt;p style=&quot;margin:0px;margin-left:4px;&quot;&gt;&lt;br&gt;&lt;/p&gt;" style="verticalAlign=top;align=left;overflow=fill;fontSize=12;fontFamily=Helvetica;html=1;sketch=0;strokeWidth=2;" parent="WIyWlLk6GJQsqaUBKTNV-1" vertex="1">
          <mxGeometry x="60" y="308" width="190" height="100" as="geometry" />
        </mxCell>
        <mxCell id="A5fvS7BDDAw0l9XVEY4Y-54" value="&lt;p style=&quot;margin:0px;margin-top:4px;text-align:center;&quot;&gt;&lt;b&gt;eCH-0108:L&lt;/b&gt;&lt;b style=&quot;background-color: initial;&quot;&gt;ocalUnitMasterData&lt;/b&gt;&lt;/p&gt;&lt;hr size=&quot;1&quot;&gt;&lt;p style=&quot;margin:0px;margin-left:4px;&quot;&gt;&amp;nbsp;&lt;br&gt;&lt;/p&gt;&lt;hr size=&quot;1&quot;&gt;&lt;p style=&quot;margin:0px;margin-left:4px;&quot;&gt;&lt;br&gt;&lt;/p&gt;" style="verticalAlign=top;align=left;overflow=fill;fontSize=12;fontFamily=Helvetica;html=1;sketch=0;strokeWidth=2;" parent="WIyWlLk6GJQsqaUBKTNV-1" vertex="1">
          <mxGeometry x="250" y="752" width="190" height="100" as="geometry" />
        </mxCell>
        <mxCell id="A5fvS7BDDAw0l9XVEY4Y-55" value="&lt;p style=&quot;margin:0px;margin-top:4px;text-align:center;&quot;&gt;&lt;i&gt;&amp;lt;&amp;lt;enumeration&amp;gt;&amp;gt;&lt;/i&gt;&lt;br&gt;&lt;b&gt;eCH-0108:UnitStatus&lt;/b&gt;&lt;/p&gt;&lt;hr size=&quot;1&quot;&gt;&lt;p style=&quot;margin:0px;margin-left:4px;&quot;&gt;+ item: EnumeratedItem&amp;nbsp;&amp;nbsp;&lt;/p&gt;&lt;hr size=&quot;1&quot;&gt;&lt;p style=&quot;margin:0px;margin-left:4px;&quot;&gt;&lt;br&gt;&lt;/p&gt;" style="verticalAlign=top;align=left;overflow=fill;fontSize=12;fontFamily=Helvetica;html=1;sketch=0;strokeWidth=2;" parent="WIyWlLk6GJQsqaUBKTNV-1" vertex="1">
          <mxGeometry x="30" y="818" width="190" height="100" as="geometry" />
        </mxCell>
        <mxCell id="A5fvS7BDDAw0l9XVEY4Y-56" value="" style="endArrow=classic;html=1;sketch=0;fontFamily=Helvetica;curved=1;exitX=0.408;exitY=1.192;exitDx=0;exitDy=0;exitPerimeter=0;" parent="WIyWlLk6GJQsqaUBKTNV-1" source="A5fvS7BDDAw0l9XVEY4Y-3" target="A5fvS7BDDAw0l9XVEY4Y-55" edge="1">
          <mxGeometry width="50" height="50" relative="1" as="geometry">
            <mxPoint x="370" y="742" as="sourcePoint" />
            <mxPoint x="420" y="692" as="targetPoint" />
          </mxGeometry>
        </mxCell>
        <mxCell id="A5fvS7BDDAw0l9XVEY4Y-63" value="legalUnit&lt;br&gt;Affiliation" style="edgeLabel;resizable=0;html=1;align=center;verticalAlign=middle;strokeWidth=2;fontFamily=Helvetica;" parent="WIyWlLk6GJQsqaUBKTNV-1" connectable="0" vertex="1">
          <mxGeometry x="279.9998481426421" y="629.995584012451" as="geometry">
            <mxPoint x="-23" y="48" as="offset" />
          </mxGeometry>
        </mxCell>
        <mxCell id="A5fvS7BDDAw0l9XVEY4Y-35" value="  " style="text;strokeColor=none;fillColor=none;align=left;verticalAlign=top;spacingLeft=4;spacingRight=4;overflow=hidden;rotatable=0;points=[[0,0.5],[1,0.5]];portConstraint=eastwest;fontFamily=Helvetica;" parent="WIyWlLk6GJQsqaUBKTNV-1" vertex="1">
          <mxGeometry x="690" y="862" width="160" height="24" as="geometry" />
        </mxCell>
        <mxCell id="A5fvS7BDDAw0l9XVEY4Y-75" value="" style="endArrow=classic;html=1;sketch=0;fontFamily=Helvetica;curved=1;exitX=0.02;exitY=1.005;exitDx=0;exitDy=0;exitPerimeter=0;" parent="WIyWlLk6GJQsqaUBKTNV-1" source="rzEtL8piYvgAkyVDYDZv-19" target="A5fvS7BDDAw0l9XVEY4Y-52" edge="1">
          <mxGeometry width="50" height="50" relative="1" as="geometry">
            <mxPoint x="682.5000000000002" y="738" as="sourcePoint" />
            <mxPoint x="580" y="672" as="targetPoint" />
          </mxGeometry>
        </mxCell>
        <mxCell id="A5fvS7BDDAw0l9XVEY4Y-76" value="0..1" style="edgeLabel;resizable=0;html=1;align=center;verticalAlign=middle;sketch=1;fontFamily=Helvetica;strokeWidth=2;" parent="WIyWlLk6GJQsqaUBKTNV-1" connectable="0" vertex="1">
          <mxGeometry x="619.9992095369237" y="937.9976021193165" as="geometry">
            <mxPoint x="-8" y="2" as="offset" />
          </mxGeometry>
        </mxCell>
        <mxCell id="A5fvS7BDDAw0l9XVEY4Y-82" value="" style="endArrow=classic;html=1;sketch=0;fontFamily=Helvetica;curved=1;exitX=0.143;exitY=0.984;exitDx=0;exitDy=0;entryX=0.146;entryY=-0.023;entryDx=0;entryDy=0;exitPerimeter=0;entryPerimeter=0;" parent="WIyWlLk6GJQsqaUBKTNV-1" source="rzEtL8piYvgAkyVDYDZv-19" target="A5fvS7BDDAw0l9XVEY4Y-51" edge="1">
          <mxGeometry width="50" height="50" relative="1" as="geometry">
            <mxPoint x="715.4999999999998" y="739.2239999999997" as="sourcePoint" />
            <mxPoint x="552.5" y="852.0000000000002" as="targetPoint" />
          </mxGeometry>
        </mxCell>
        <mxCell id="A5fvS7BDDAw0l9XVEY4Y-83" value="0..1" style="edgeLabel;resizable=0;html=1;align=center;verticalAlign=middle;sketch=1;fontFamily=Helvetica;strokeWidth=2;" parent="WIyWlLk6GJQsqaUBKTNV-1" connectable="0" vertex="1">
          <mxGeometry x="519.9992095369237" y="861.9976021193165" as="geometry">
            <mxPoint x="-13" y="16" as="offset" />
          </mxGeometry>
        </mxCell>
        <mxCell id="A5fvS7BDDAw0l9XVEY4Y-84" value="&lt;p style=&quot;margin:0px;margin-top:4px;text-align:center;&quot;&gt;&lt;i&gt;&amp;lt;&amp;lt;enumeration&amp;gt;&amp;gt;&lt;/i&gt;&lt;br&gt;&lt;/p&gt;&lt;p style=&quot;margin:0px;margin-top:4px;text-align:center;&quot;&gt;&lt;i&gt;&lt;b&gt;AgriculturalOversightAuthority&lt;/b&gt;&lt;/i&gt;&lt;/p&gt;&lt;p style=&quot;margin:0px;margin-left:4px;&quot;&gt;&amp;nbsp;&amp;nbsp;&lt;/p&gt;&lt;hr size=&quot;1&quot;&gt;&lt;p style=&quot;margin:0px;margin-left:4px;&quot;&gt;cantonalAuthority: eCH-007: cantonAbbreviation&amp;nbsp; OR&lt;/p&gt;&lt;p style=&quot;margin:0px;margin-left:4px;&quot;&gt;stateAuthority: eCH-0008:countryIdISO2&lt;/p&gt;" style="verticalAlign=top;align=left;overflow=fill;fontSize=12;fontFamily=Helvetica;html=1;sketch=0;strokeWidth=2;" parent="WIyWlLk6GJQsqaUBKTNV-1" vertex="1">
          <mxGeometry x="720" y="838" width="310" height="100" as="geometry" />
        </mxCell>
        <mxCell id="A5fvS7BDDAw0l9XVEY4Y-85" value="" style="endArrow=classic;html=1;sketch=0;fontFamily=Helvetica;curved=1;exitX=0.288;exitY=1.001;exitDx=0;exitDy=0;exitPerimeter=0;" parent="WIyWlLk6GJQsqaUBKTNV-1" source="rzEtL8piYvgAkyVDYDZv-19" target="A5fvS7BDDAw0l9XVEY4Y-84" edge="1">
          <mxGeometry width="50" height="50" relative="1" as="geometry">
            <mxPoint x="774" y="737" as="sourcePoint" />
            <mxPoint x="622.5" y="922" as="targetPoint" />
          </mxGeometry>
        </mxCell>
        <mxCell id="A5fvS7BDDAw0l9XVEY4Y-86" value="0..1" style="edgeLabel;resizable=0;html=1;align=center;verticalAlign=middle;sketch=1;fontFamily=Helvetica;strokeWidth=2;" parent="WIyWlLk6GJQsqaUBKTNV-1" connectable="0" vertex="1">
          <mxGeometry x="710.9992095369237" y="937.9976021193165" as="geometry">
            <mxPoint x="138" y="-118" as="offset" />
          </mxGeometry>
        </mxCell>
        <mxCell id="A5fvS7BDDAw0l9XVEY4Y-88" value="" style="endArrow=classic;html=1;sketch=0;fontFamily=Helvetica;curved=1;exitX=0.406;exitY=-0.042;exitDx=0;exitDy=0;entryX=0.37;entryY=0.994;entryDx=0;entryDy=0;entryPerimeter=0;exitPerimeter=0;" parent="WIyWlLk6GJQsqaUBKTNV-1" source="A5fvS7BDDAw0l9XVEY4Y-4" target="A5fvS7BDDAw0l9XVEY4Y-46" edge="1">
          <mxGeometry width="50" height="50" relative="1" as="geometry">
            <mxPoint x="703.1400000000001" y="590.8999999999996" as="sourcePoint" />
            <mxPoint x="550" y="458" as="targetPoint" />
          </mxGeometry>
        </mxCell>
        <mxCell id="A5fvS7BDDAw0l9XVEY4Y-90" value="" style="endArrow=classic;html=1;sketch=0;fontFamily=Helvetica;curved=1;" parent="WIyWlLk6GJQsqaUBKTNV-1" source="A5fvS7BDDAw0l9XVEY4Y-0" target="A5fvS7BDDAw0l9XVEY4Y-53" edge="1">
          <mxGeometry width="50" height="50" relative="1" as="geometry">
            <mxPoint x="395.83" y="411.0000000000002" as="sourcePoint" />
            <mxPoint x="310.79" y="318.3399999999999" as="targetPoint" />
          </mxGeometry>
        </mxCell>
        <mxCell id="A5fvS7BDDAw0l9XVEY4Y-92" value="" style="endArrow=classic;html=1;sketch=0;fontFamily=Helvetica;curved=1;entryX=0.995;entryY=0.62;entryDx=0;entryDy=0;entryPerimeter=0;" parent="WIyWlLk6GJQsqaUBKTNV-1" source="A5fvS7BDDAw0l9XVEY4Y-54" target="A5fvS7BDDAw0l9XVEY4Y-55" edge="1">
          <mxGeometry width="50" height="50" relative="1" as="geometry">
            <mxPoint x="402.4" y="681.0000000000002" as="sourcePoint" />
            <mxPoint x="317.36" y="588.3399999999999" as="targetPoint" />
          </mxGeometry>
        </mxCell>
        <mxCell id="A5fvS7BDDAw0l9XVEY4Y-94" value="" style="endArrow=classic;html=1;sketch=0;fontFamily=Helvetica;curved=1;entryX=0.929;entryY=0.994;entryDx=0;entryDy=0;entryPerimeter=0;exitX=0.421;exitY=-0.045;exitDx=0;exitDy=0;exitPerimeter=0;" parent="WIyWlLk6GJQsqaUBKTNV-1" source="rzEtL8piYvgAkyVDYDZv-19" target="A5fvS7BDDAw0l9XVEY4Y-46" edge="1">
          <mxGeometry width="50" height="50" relative="1" as="geometry">
            <mxPoint x="800" y="590" as="sourcePoint" />
            <mxPoint x="845.5799999999999" y="367.9999999999999" as="targetPoint" />
          </mxGeometry>
        </mxCell>
        <mxCell id="A5fvS7BDDAw0l9XVEY4Y-95" value="0..*" style="edgeLabel;resizable=0;html=1;align=right;verticalAlign=bottom;strokeWidth=2;fontFamily=Helvetica;" parent="WIyWlLk6GJQsqaUBKTNV-1" connectable="0" vertex="1">
          <mxGeometry x="750.004060478218" y="417.9984779385149" as="geometry" />
        </mxCell>
        <mxCell id="A5fvS7BDDAw0l9XVEY4Y-96" value="" style="swimlane;startSize=0;sketch=0;fontFamily=Helvetica;strokeWidth=2;" parent="WIyWlLk6GJQsqaUBKTNV-1" vertex="1">
          <mxGeometry x="911" y="63" width="200" height="100" as="geometry" />
        </mxCell>
        <mxCell id="A5fvS7BDDAw0l9XVEY4Y-99" value="&lt;span style=&quot;color: rgba(0, 0, 0, 0); font-size: 0px; text-align: start;&quot;&gt;ss&lt;/span&gt;" style="text;html=1;strokeColor=none;fillColor=none;align=center;verticalAlign=middle;whiteSpace=wrap;rounded=0;strokeWidth=2;fontFamily=Helvetica;" parent="A5fvS7BDDAw0l9XVEY4Y-96" vertex="1">
          <mxGeometry x="96.60000000000002" y="50" width="230" height="30" as="geometry" />
        </mxCell>
        <mxCell id="rzEtL8piYvgAkyVDYDZv-4" value="&lt;p style=&quot;margin:0px;margin-top:4px;text-align:center;&quot;&gt;&lt;i&gt;&amp;lt;&amp;lt;enumeration&amp;gt;&amp;gt;&lt;/i&gt;&lt;br&gt;&lt;b&gt;LegalUnit&lt;/b&gt;&lt;/p&gt;&lt;hr size=&quot;1&quot;&gt;&lt;p style=&quot;margin:0px;margin-left:4px;&quot;&gt;+ item: EnumeratedItem&amp;nbsp;&amp;nbsp;&lt;/p&gt;&lt;hr size=&quot;1&quot;&gt;&lt;p style=&quot;margin:0px;margin-left:4px;&quot;&gt;&lt;br&gt;&lt;/p&gt;" style="verticalAlign=top;align=left;overflow=fill;fontSize=12;fontFamily=Helvetica;html=1;sketch=0;strokeWidth=2;" parent="WIyWlLk6GJQsqaUBKTNV-1" vertex="1">
          <mxGeometry x="305" y="318" width="190" height="100" as="geometry" />
        </mxCell>
        <mxCell id="rzEtL8piYvgAkyVDYDZv-6" style="rounded=0;orthogonalLoop=1;jettySize=auto;html=1;" parent="WIyWlLk6GJQsqaUBKTNV-1" source="rzEtL8piYvgAkyVDYDZv-4" target="A5fvS7BDDAw0l9XVEY4Y-4" edge="1">
          <mxGeometry relative="1" as="geometry" />
        </mxCell>
        <mxCell id="rzEtL8piYvgAkyVDYDZv-14" style="rounded=0;orthogonalLoop=1;jettySize=auto;html=1;entryX=0.008;entryY=0.357;entryDx=0;entryDy=0;entryPerimeter=0;" parent="WIyWlLk6GJQsqaUBKTNV-1" source="rzEtL8piYvgAkyVDYDZv-13" target="rzEtL8piYvgAkyVDYDZv-19" edge="1">
          <mxGeometry relative="1" as="geometry">
            <mxPoint x="619.5" y="651.2319999999997" as="targetPoint" />
          </mxGeometry>
        </mxCell>
        <mxCell id="rzEtL8piYvgAkyVDYDZv-15" style="rounded=0;orthogonalLoop=1;jettySize=auto;html=1;" parent="WIyWlLk6GJQsqaUBKTNV-1" source="rzEtL8piYvgAkyVDYDZv-13" target="A5fvS7BDDAw0l9XVEY4Y-54" edge="1">
          <mxGeometry relative="1" as="geometry" />
        </mxCell>
        <mxCell id="rzEtL8piYvgAkyVDYDZv-13" value="&lt;p style=&quot;margin:0px;margin-top:4px;text-align:center;&quot;&gt;&lt;i&gt;&amp;lt;&amp;lt;enumeration&amp;gt;&amp;gt;&lt;/i&gt;&lt;br&gt;&lt;b&gt;LocalUnit&lt;/b&gt;&lt;/p&gt;&lt;hr size=&quot;1&quot;&gt;&lt;p style=&quot;margin:0px;margin-left:4px;&quot;&gt;mainUid: uid (0-1)&lt;/p&gt;&lt;hr size=&quot;1&quot;&gt;&lt;p style=&quot;margin:0px;margin-left:4px;&quot;&gt;&lt;br&gt;&lt;/p&gt;" style="verticalAlign=top;align=left;overflow=fill;fontSize=12;fontFamily=Helvetica;html=1;sketch=0;strokeWidth=2;" parent="WIyWlLk6GJQsqaUBKTNV-1" vertex="1">
          <mxGeometry x="370" y="572" width="190" height="100" as="geometry" />
        </mxCell>
        <mxCell id="rzEtL8piYvgAkyVDYDZv-17" value="" style="endArrow=classic;html=1;sketch=0;fontFamily=Helvetica;curved=1;exitX=0.25;exitY=1;exitDx=0;exitDy=0;entryX=0.831;entryY=-0.02;entryDx=0;entryDy=0;entryPerimeter=0;" parent="WIyWlLk6GJQsqaUBKTNV-1" source="rzEtL8piYvgAkyVDYDZv-4" target="A5fvS7BDDAw0l9XVEY4Y-0" edge="1">
          <mxGeometry width="50" height="50" relative="1" as="geometry">
            <mxPoint x="218" y="502" as="sourcePoint" />
            <mxPoint x="185" y="418" as="targetPoint" />
          </mxGeometry>
        </mxCell>
        <mxCell id="rzEtL8piYvgAkyVDYDZv-19" value="&lt;p style=&quot;margin:0px;margin-top:4px;text-align:center;&quot;&gt;&lt;b&gt;AgriculturalAdditionToLocalUnit&lt;/b&gt;&lt;/p&gt;&lt;hr size=&quot;1&quot;&gt;&lt;p style=&quot;margin:0px;margin-left:4px;&quot;&gt;inspectionOrganisation: uid (0-1)&lt;/p&gt;&lt;p style=&quot;margin:0px;margin-left:4px;&quot;&gt;parentLocalId: eCH-0108:localType (0..1)&lt;/p&gt;&lt;p style=&quot;margin:0px;margin-left:4px;&quot;&gt;farmType: eCH-0180:farmType&lt;/p&gt;&lt;p style=&quot;margin:0px;margin-left:4px;&quot;&gt;&lt;br&gt;&lt;/p&gt;&lt;p style=&quot;margin:0px;margin-left:4px;&quot;&gt;&lt;br&gt;&lt;/p&gt;&lt;p style=&quot;margin:0px;margin-left:4px;&quot;&gt;&lt;br&gt;&lt;/p&gt;&lt;hr size=&quot;1&quot;&gt;&lt;p style=&quot;margin:0px;margin-left:4px;&quot;&gt;&lt;br&gt;&lt;/p&gt;" style="verticalAlign=top;align=left;overflow=fill;fontSize=12;fontFamily=Helvetica;html=1;sketch=0;strokeWidth=2;" parent="WIyWlLk6GJQsqaUBKTNV-1" vertex="1">
          <mxGeometry x="690" y="600" width="310" height="130" as="geometry" />
        </mxCell>
        <mxCell id="0" style="rounded=0;orthogonalLoop=1;jettySize=auto;html=1;entryX=0.599;entryY=1.035;entryDx=0;entryDy=0;entryPerimeter=0;exitX=0.395;exitY=-0.01;exitDx=0;exitDy=0;exitPerimeter=0;" parent="WIyWlLk6GJQsqaUBKTNV-1" source="A5fvS7BDDAw0l9XVEY4Y-54" target="A5fvS7BDDAw0l9XVEY4Y-3" edge="1">
          <mxGeometry relative="1" as="geometry">
            <mxPoint x="441.66666666666674" y="682" as="sourcePoint" />
            <mxPoint x="388.33333333333326" y="762" as="targetPoint" />
          </mxGeometry>
        </mxCell>
        <mxCell id="dJjOKVbPwSL5Kl3M8rIb-0" value="0..*" style="text;html=1;strokeColor=none;fillColor=none;align=center;verticalAlign=middle;whiteSpace=wrap;rounded=0;" vertex="1" parent="WIyWlLk6GJQsqaUBKTNV-1">
          <mxGeometry x="605" y="388" width="60" height="30" as="geometry" />
        </mxCell>
        <mxCell id="dJjOKVbPwSL5Kl3M8rIb-1" value="" style="endArrow=none;dashed=1;html=1;dashPattern=1 3;strokeWidth=2;rounded=0;exitX=1.011;exitY=0.442;exitDx=0;exitDy=0;exitPerimeter=0;" edge="1" parent="WIyWlLk6GJQsqaUBKTNV-1" source="rzEtL8piYvgAkyVDYDZv-19" target="dJjOKVbPwSL5Kl3M8rIb-2">
          <mxGeometry width="50" height="50" relative="1" as="geometry">
            <mxPoint x="670" y="560" as="sourcePoint" />
            <mxPoint x="830" y="490" as="targetPoint" />
          </mxGeometry>
        </mxCell>
        <mxCell id="dJjOKVbPwSL5Kl3M8rIb-2" value="double-check cardinalities.&amp;nbsp;&amp;nbsp;&lt;br&gt;They do not agree with XSD." style="text;html=1;strokeColor=none;fillColor=none;align=left;verticalAlign=middle;whiteSpace=wrap;rounded=0;" vertex="1" parent="WIyWlLk6GJQsqaUBKTNV-1">
          <mxGeometry x="1030" y="630" width="145" height="30" as="geometry" />
        </mxCell>
        <mxCell id="dJjOKVbPwSL5Kl3M8rIb-3" value="&lt;p style=&quot;margin:0px;margin-top:4px;text-align:center;&quot;&gt;&lt;i&gt;&amp;lt;&amp;lt;enumeration&amp;gt;&amp;gt;&lt;/i&gt;&lt;br&gt;&lt;b&gt;AgriculturalZone&lt;/b&gt;&lt;/p&gt;&lt;hr size=&quot;1&quot;&gt;&lt;p style=&quot;margin:0px;margin-left:4px;&quot;&gt;&lt;/p&gt;&lt;p style=&quot;margin:0px;margin-left:4px;&quot;&gt;&lt;br&gt;&lt;/p&gt;" style="verticalAlign=top;align=left;overflow=fill;fontSize=12;fontFamily=Helvetica;html=1;sketch=0;strokeWidth=2;" vertex="1" parent="WIyWlLk6GJQsqaUBKTNV-1">
          <mxGeometry x="860" y="442" width="190" height="100" as="geometry" />
        </mxCell>
        <mxCell id="dJjOKVbPwSL5Kl3M8rIb-4" value="" style="endArrow=classic;html=1;sketch=0;fontFamily=Helvetica;curved=1;exitX=0.577;exitY=-0.009;exitDx=0;exitDy=0;exitPerimeter=0;" edge="1" parent="WIyWlLk6GJQsqaUBKTNV-1" source="rzEtL8piYvgAkyVDYDZv-19" target="dJjOKVbPwSL5Kl3M8rIb-3">
          <mxGeometry width="50" height="50" relative="1" as="geometry">
            <mxPoint x="831" y="604" as="sourcePoint" />
            <mxPoint x="729" y="382" as="targetPoint" />
          </mxGeometry>
        </mxCell>
        <mxCell id="dJjOKVbPwSL5Kl3M8rIb-5" value="&lt;p style=&quot;margin:0px;margin-top:4px;text-align:center;&quot;&gt;&lt;i&gt;&amp;lt;&amp;lt;enumeration&amp;gt;&amp;gt;&lt;/i&gt;&lt;br&gt;&lt;b&gt;Validity&lt;/b&gt;&lt;/p&gt;&lt;hr size=&quot;1&quot;&gt;&lt;p style=&quot;margin:0px;margin-left:4px;&quot;&gt;validFromInclusive&lt;/p&gt;&lt;p style=&quot;margin:0px;margin-left:4px;&quot;&gt;validToExclusive&lt;/p&gt;" style="verticalAlign=top;align=left;overflow=fill;fontSize=12;fontFamily=Helvetica;html=1;sketch=0;" vertex="1" parent="WIyWlLk6GJQsqaUBKTNV-1">
          <mxGeometry x="285" y="41" width="120" height="79" as="geometry" />
        </mxCell>
        <mxCell id="dJjOKVbPwSL5Kl3M8rIb-6" value="&lt;p style=&quot;margin:0px;margin-top:4px;text-align:center;&quot;&gt;&lt;i&gt;&amp;lt;&amp;lt;enumeration&amp;gt;&amp;gt;&lt;/i&gt;&lt;br&gt;&lt;b&gt;Veracity&lt;/b&gt;&lt;/p&gt;&lt;hr size=&quot;1&quot;&gt;&lt;p style=&quot;margin:0px;margin-left:4px;&quot;&gt;&lt;br&gt;&lt;/p&gt;" style="verticalAlign=top;align=left;overflow=fill;fontSize=12;fontFamily=Helvetica;html=1;sketch=0;" vertex="1" parent="WIyWlLk6GJQsqaUBKTNV-1">
          <mxGeometry x="177" y="178" width="123" height="72" as="geometry" />
        </mxCell>
        <mxCell id="A5fvS7BDDAw0l9XVEY4Y-97" value="&lt;br&gt;Note: Not strict UML, for conceptual&lt;br&gt;visualisation purposes only!&lt;br&gt;&lt;br&gt;Default Cardinality: 1&lt;br&gt;Attributes selectively depicted.&lt;br&gt;Datatypes selectively depicted.&lt;br&gt;&lt;br&gt;&quot;Choice&quot; semantics included." style="text;html=1;strokeColor=none;fillColor=none;align=left;verticalAlign=middle;whiteSpace=wrap;rounded=0;strokeWidth=2;fontFamily=Helvetica;" parent="WIyWlLk6GJQsqaUBKTNV-1" vertex="1">
          <mxGeometry x="921" y="181" width="230" height="112" as="geometry" />
        </mxCell>
        <mxCell id="A5fvS7BDDAw0l9XVEY4Y-100" value="Local and Legal Units&lt;br&gt;in the Agricultural Sector" style="text;html=1;strokeColor=none;fillColor=none;align=left;verticalAlign=middle;whiteSpace=wrap;rounded=0;strokeWidth=2;fontFamily=Helvetica;" parent="WIyWlLk6GJQsqaUBKTNV-1" vertex="1">
          <mxGeometry x="943" y="113" width="226.4" height="30" as="geometry" />
        </mxCell>
        <mxCell id="9_fdUrSxjmN1W93VfHhp-1" value="&lt;h1&gt;&lt;span style=&quot;background-color: initial;&quot;&gt;eCH-0261&lt;/span&gt;&lt;/h1&gt;&lt;h1&gt;&lt;br&gt;&lt;/h1&gt;" style="text;html=1;strokeColor=none;fillColor=none;spacing=5;spacingTop=-20;whiteSpace=wrap;overflow=hidden;rounded=0;strokeWidth=2;fontFamily=Helvetica;" parent="WIyWlLk6GJQsqaUBKTNV-1" vertex="1">
          <mxGeometry x="943.7" y="63" width="185.7" height="80" as="geometry" />
        </mxCell>
        <mxCell id="dJjOKVbPwSL5Kl3M8rIb-9" value="&lt;p style=&quot;margin:0px;margin-top:4px;text-align:center;&quot;&gt;&lt;b&gt;Person&lt;/b&gt;&lt;/p&gt;&lt;hr size=&quot;1&quot;&gt;&lt;p style=&quot;margin:0px;margin-left:4px;&quot;&gt;&lt;br&gt;&lt;/p&gt;&lt;p style=&quot;margin:0px;margin-left:4px;&quot;&gt;&lt;br&gt;&lt;/p&gt;&lt;hr size=&quot;1&quot;&gt;&lt;p style=&quot;margin:0px;margin-left:4px;&quot;&gt;&lt;br&gt;&lt;/p&gt;" style="verticalAlign=top;align=left;overflow=fill;fontSize=12;fontFamily=Helvetica;html=1;sketch=0;strokeWidth=2;" vertex="1" parent="WIyWlLk6GJQsqaUBKTNV-1">
          <mxGeometry x="675" y="191" width="190" height="92" as="geometry" />
        </mxCell>
        <mxCell id="dJjOKVbPwSL5Kl3M8rIb-11" value="&lt;p style=&quot;margin:0px;margin-top:4px;text-align:center;&quot;&gt;&lt;b&gt;PersonIdentifier&lt;/b&gt;&lt;/p&gt;&lt;hr size=&quot;1&quot;&gt;&lt;p style=&quot;margin:0px;margin-left:4px;&quot;&gt;vn: eCH-0044:vn&amp;nbsp; OR Fallback:&lt;/p&gt;&lt;p style=&quot;margin:0px;margin-left:4px;&quot;&gt;eiam OR Fallback:&lt;/p&gt;&lt;p style=&quot;margin:0px;margin-left:4px;&quot;&gt;uuid OR Fallback:&lt;/p&gt;&lt;p style=&quot;margin:0px;margin-left:4px;&quot;&gt;email: eCH-0044:emailAddress&lt;/p&gt;&lt;p style=&quot;margin:0px;margin-left:4px;&quot;&gt;&lt;br&gt;&lt;/p&gt;&lt;hr size=&quot;1&quot;&gt;&lt;p style=&quot;margin:0px;margin-left:4px;&quot;&gt;&lt;br&gt;&lt;/p&gt;" style="verticalAlign=top;align=left;overflow=fill;fontSize=12;fontFamily=Helvetica;html=1;sketch=0;strokeWidth=2;" vertex="1" parent="WIyWlLk6GJQsqaUBKTNV-1">
          <mxGeometry x="690" y="28" width="190" height="118" as="geometry" />
        </mxCell>
        <mxCell id="dJjOKVbPwSL5Kl3M8rIb-12" value="" style="endArrow=classic;html=1;sketch=0;fontFamily=Helvetica;curved=1;entryX=0.411;entryY=0.998;entryDx=0;entryDy=0;entryPerimeter=0;" edge="1" parent="WIyWlLk6GJQsqaUBKTNV-1" source="dJjOKVbPwSL5Kl3M8rIb-9" target="dJjOKVbPwSL5Kl3M8rIb-11">
          <mxGeometry width="50" height="50" relative="1" as="geometry">
            <mxPoint x="689" y="316" as="sourcePoint" />
            <mxPoint x="748" y="220" as="targetPoint" />
          </mxGeometry>
        </mxCell>
        <mxCell id="dJjOKVbPwSL5Kl3M8rIb-13" value="&lt;p style=&quot;margin:0px;margin-top:4px;text-align:center;&quot;&gt;&lt;b style=&quot;background-color: initial;&quot;&gt;Measurement&lt;/b&gt;&lt;br&gt;&lt;/p&gt;&lt;hr size=&quot;1&quot;&gt;&lt;p style=&quot;margin:0px;margin-left:4px;&quot;&gt;&lt;/p&gt;&lt;p style=&quot;margin:0px;margin-left:4px;&quot;&gt;value: decimal&lt;/p&gt;&lt;p style=&quot;margin:0px;margin-left:4px;&quot;&gt;unitName: string (0-1)&lt;/p&gt;" style="verticalAlign=top;align=left;overflow=fill;fontSize=12;fontFamily=Helvetica;html=1;sketch=0;strokeWidth=2;" vertex="1" parent="WIyWlLk6GJQsqaUBKTNV-1">
          <mxGeometry x="90" y="41" width="150" height="72" as="geometry" />
        </mxCell>
        <mxCell id="dJjOKVbPwSL5Kl3M8rIb-14" value="" style="endArrow=classic;html=1;sketch=0;fontFamily=Helvetica;curved=1;" edge="1" parent="WIyWlLk6GJQsqaUBKTNV-1" source="dJjOKVbPwSL5Kl3M8rIb-13" target="9_fdUrSxjmN1W93VfHhp-0">
          <mxGeometry width="50" height="50" relative="1" as="geometry">
            <mxPoint x="218" y="502" as="sourcePoint" />
            <mxPoint x="185" y="418" as="targetPoint" />
          </mxGeometry>
        </mxCell>
        <mxCell id="dJjOKVbPwSL5Kl3M8rIb-15" value="" style="endArrow=classic;html=1;sketch=0;fontFamily=Helvetica;curved=1;" edge="1" parent="WIyWlLk6GJQsqaUBKTNV-1" source="A5fvS7BDDAw0l9XVEY4Y-33" target="dJjOKVbPwSL5Kl3M8rIb-5">
          <mxGeometry width="50" height="50" relative="1" as="geometry">
            <mxPoint x="249" y="80" as="sourcePoint" />
            <mxPoint x="299" y="81" as="targetPoint" />
          </mxGeometry>
        </mxCell>
        <mxCell id="dJjOKVbPwSL5Kl3M8rIb-16" value="" style="endArrow=classic;html=1;sketch=0;fontFamily=Helvetica;curved=1;entryX=-0.004;entryY=0.31;entryDx=0;entryDy=0;entryPerimeter=0;" edge="1" parent="WIyWlLk6GJQsqaUBKTNV-1" source="A5fvS7BDDAw0l9XVEY4Y-33" target="9_fdUrSxjmN1W93VfHhp-13">
          <mxGeometry width="50" height="50" relative="1" as="geometry">
            <mxPoint x="368" y="188" as="sourcePoint" />
            <mxPoint x="460" y="210" as="targetPoint" />
          </mxGeometry>
        </mxCell>
        <mxCell id="dJjOKVbPwSL5Kl3M8rIb-17" value="" style="endArrow=classic;html=1;sketch=0;fontFamily=Helvetica;curved=1;entryX=0.008;entryY=0.92;entryDx=0;entryDy=0;entryPerimeter=0;" edge="1" parent="WIyWlLk6GJQsqaUBKTNV-1" source="A5fvS7BDDAw0l9XVEY4Y-33" target="9_fdUrSxjmN1W93VfHhp-12">
          <mxGeometry width="50" height="50" relative="1" as="geometry">
            <mxPoint x="444" y="223" as="sourcePoint" />
            <mxPoint x="489" y="220" as="targetPoint" />
          </mxGeometry>
        </mxCell>
      </root>
    </mxGraphModel>
  </diagram>
</mxfile>
